<?xml version="1.0" encoding="UTF-8"?>
<svg viewBox="0 0 700 700" xmlns="http://www.w3.org/2000/svg">
<rect width="700" height="700" fill="#050505"/>
<path d="m173.42 526.98c78.105 78.104 204.74 78.104 282.84 0 78.104-78.105 78.104-204.74 0-282.84l-35.356 35.355c58.579 58.579 58.579 153.55 0 212.13-58.578 58.579-153.55 58.579-212.13 0l-35.355 35.356z" fill="#00E9A3"/>
<path d="m244.13 456.26c39.052 39.052 102.37 39.052 141.42 0 39.052-39.052 39.052-102.37 0-141.42l-35.355 35.355c19.526 19.526 19.526 51.184 0 70.711-19.527 19.526-51.185 19.526-70.711 0l-35.355 35.355z" fill="#00E9A3"/>
<path d="m526.97 173.42c-78.105-78.104-204.74-78.104-282.84 0-78.105 78.105-78.105 204.74 0 282.84l35.355-35.355c-58.578-58.579-58.578-153.55 0-212.13 58.579-58.579 153.55-58.579 212.13 0l35.356-35.356z" fill="#00E9A3"/>
<path d="m456.26 244.13c-39.052-39.052-102.37-39.052-141.42 0-39.053 39.053-39.053 102.37 0 141.42l35.355-35.355c-19.526-19.526-19.526-51.184 0-70.711 19.526-19.526 51.184-19.526 70.711 0l35.356-35.355z" fill="#00E9A3"/>
<path d="m526.97 173.42c-78.105-78.104-204.74-78.104-282.84 0-78.105 78.105-78.105 204.74 0 282.84l35.355-35.355c-58.578-58.579-58.578-153.55 0-212.13 58.579-58.579 153.55-58.579 212.13 0l35.356-35.356z" fill="#fff" fill-opacity=".8"/>
<path d="m456.26 244.13c-39.052-39.052-102.37-39.052-141.42 0-39.053 39.053-39.053 102.37 0 141.42l35.355-35.355c-19.526-19.526-19.526-51.184 0-70.711 19.526-19.526 51.184-19.526 70.711 0l35.356-35.355z" fill="#fff" fill-opacity=".8"/>
</svg>
